<?xml version="1.0" encoding="UTF-8" standalone="no"?>
<!-- Created with Inkscape (http://www.inkscape.org/) -->

<svg
   xmlns:dc="http://purl.org/dc/elements/1.1/"
   xmlns:cc="http://creativecommons.org/ns#"
   xmlns:rdf="http://www.w3.org/1999/02/22-rdf-syntax-ns#"
   xmlns:svg="http://www.w3.org/2000/svg"
   xmlns="http://www.w3.org/2000/svg"
   xmlns:sodipodi="http://sodipodi.sourceforge.net/DTD/sodipodi-0.dtd"
   xmlns:inkscape="http://www.inkscape.org/namespaces/inkscape"
   width="46.5mm"
   height="42.32074mm"
   viewBox="0 0 46.5 42.32074"
   version="1.1"
   id="svg1332"
   inkscape:version="0.92.0 r15299"
   sodipodi:docname="tbc bank.svg">
  <defs
     id="defs1326"><style
   id="style1334"
   type="text/css">
   <![CDATA[
    .fil0 {fill:#ffffff;fill-rule:nonzero}
    .fil1 {fill:#ffffff;fill-rule:nonzero}
   ]]>
  </style>

  
  
  
  
  
  
  
  
  
  
  
 </defs>
  <sodipodi:namedview
     id="base"
     pagecolor="#ffffff"
     bordercolor="#666666"
     borderopacity="1.0"
     inkscape:pageopacity="0.0"
     inkscape:pageshadow="2"
     inkscape:zoom="1.524558"
     inkscape:cx="294.18362"
     inkscape:cy="78.086459"
     inkscape:document-units="mm"
     inkscape:current-layer="layer1"
     showgrid="false"
     fit-margin-top="0"
     fit-margin-left="0"
     fit-margin-right="0"
     fit-margin-bottom="0"
     inkscape:window-width="1280"
     inkscape:window-height="744"
     inkscape:window-x="-4"
     inkscape:window-y="-4"
     inkscape:window-maximized="1" />
  <metadata
     id="metadata1329">
    <rdf:RDF>
      <cc:Work
         rdf:about="">
        <dc:format>image/svg+xml</dc:format>
        <dc:type
           rdf:resource="http://purl.org/dc/dcmitype/StillImage" />
        <dc:title></dc:title>
      </cc:Work>
    </rdf:RDF>
  </metadata>
  <g
     inkscape:label="Layer 1"
     inkscape:groupmode="layer"
     id="layer1"
     transform="translate(179.13371,-233.76225)">
    <g
       id="g1413"
       transform="translate(0.4999957,-0.49999891)">
      
      
      
      
      
      
      
      <path
         style="clip-rule:evenodd;fill:#00a3e0;fill-opacity:1;fill-rule:nonzero;stroke-width:0.02381832;image-rendering:optimizeQuality;shape-rendering:geometricPrecision;text-rendering:geometricPrecision"
         inkscape:connector-curvature="0"
         class="fil1"
         d="m -158.60669,257.64761 c 0.19055,1.92928 0.28582,2.95347 -1.28619,4.62075 -1.64346,1.73874 -5.76403,4.93039 -9.97987,7.35986 -1.78638,1.02419 -4.19203,2.26274 -6.00222,2.92965 -1.35764,0.47637 -2.47711,0.69074 -3.04875,-0.28582 -0.35727,-0.64309 -0.19054,-1.21473 0,-1.71492 1.47674,-3.97765 5.69258,-11.40897 8.45551,-16.24409 0.28582,-0.47637 0.57164,-1.00037 0.85746,-1.50055 4.23966,-7.31223 9.86078,-16.26792 10.98024,-17.72083 0.14291,-0.19055 0.45255,-0.42873 0.71455,-0.28582 0.21437,0.11909 0.21437,0.38109 0.19055,0.57164 0,0.0238 -0.0715,0.28582 -0.0953,0.40491 -1.83401,7.38368 -1.61965,14.62445 -0.78601,21.86522 z"
         id="path1353" />
      <path
         style="clip-rule:evenodd;fill:#00a3e0;fill-opacity:1;fill-rule:nonzero;stroke-width:0.02381832;image-rendering:optimizeQuality;shape-rendering:geometricPrecision;text-rendering:geometricPrecision"
         inkscape:connector-curvature="0"
         class="fil1"
         d="m -152.41392,259.91035 c -1.78638,-0.80983 -2.71529,-1.23856 -3.35839,-3.42984 -0.69073,-2.28656 -1.38146,-7.45514 -1.38146,-12.31407 0,-2.04838 0.11909,-4.76367 0.45255,-6.66913 0.262,-1.40528 0.64309,-2.50093 1.78637,-2.50093 0.71455,0 1.11946,0.45255 1.47674,0.88128 2.71529,3.23929 7.0264,10.62297 9.83696,15.41045 0.28582,0.50019 0.57164,1.00037 0.85746,1.52438 4.21585,7.33604 9.17006,16.67282 9.86079,18.3401 0.0953,0.23819 0.16673,0.61928 -0.0953,0.78601 -0.23818,0.11909 -0.45254,-0.0238 -0.59545,-0.11909 -0.0238,-0.0238 -0.21437,-0.21437 -0.30964,-0.28582 -5.47822,-5.28767 -11.86153,-8.74133 -18.53065,-11.62334 z"
         id="path1355" />
      <path
         style="clip-rule:evenodd;fill:#00a3e0;fill-opacity:1;fill-rule:nonzero;stroke-width:0.02381832;image-rendering:optimizeQuality;shape-rendering:geometricPrecision;text-rendering:geometricPrecision"
         inkscape:connector-curvature="0"
         class="fil1"
         d="m -157.48723,264.15001 c 1.59583,-1.14328 2.42947,-1.73874 4.66839,-1.21474 2.31038,0.57164 7.12168,2.54856 11.36134,4.97803 1.76256,1.02419 4.04912,2.47711 5.52585,3.71566 1.09565,0.92891 1.83401,1.81019 1.28619,2.78674 -0.38109,0.6431 -0.95273,0.76219 -1.50055,0.85746 -4.16821,0.71455 -12.71899,0.76219 -18.26865,0.80983 -0.57164,0 -1.1671,0 -1.76256,0 -8.4555,-0.0238 -19.00702,-0.40492 -20.81721,-0.6431 -0.262,-0.0476 -0.61928,-0.16673 -0.59546,-0.47637 0,-0.262 0.21437,-0.38109 0.38109,-0.45254 0.0476,-0.0238 0.28582,-0.0953 0.40492,-0.1191 7.31222,-2.11983 13.48116,-5.90694 19.31665,-10.24187 z"
         id="path1357" />
    </g>
  </g>
</svg>
